<?xml version="1.0" encoding="iso-8859-1"?>
<!-- Generator: Adobe Illustrator 16.0.0, SVG Export Plug-In . SVG Version: 6.00 Build 0)  -->
<!DOCTYPE svg PUBLIC "-//W3C//DTD SVG 1.1//EN" "http://www.w3.org/Graphics/SVG/1.1/DTD/svg11.dtd">
<svg xmlns="http://www.w3.org/2000/svg" xmlns:xlink="http://www.w3.org/1999/xlink" version="1.1" id="Capa_1" x="0px" y="0px" width="512px" height="512px" viewBox="0 0 612.013 612.013" style="enable-background:new 0 0 612.013 612.013;" xml:space="preserve">
<g>
	<path d="M593.666,295.939c-12.389-22.508-28.856-40.271-49.896-53.802c-4.81-37.579-20.31-69.898-46.293-97.409   c-30.229-31.999-70.938-49.891-113.325-49.891c-33.968,0-64.557,10.325-91.983,30.973c-27.28,20.521-46.89,47.197-58.618,79.966   c-3.309-0.321-8.119-0.642-14.73-0.642c-23.445,0-44.472,7.247-63.126,21.996c-18.321,14.429-30.96,33.025-37.874,56.175   c-1.206-0.321-3.604-0.577-6.913-0.577c-30.357,0-56.592,11.35-78.453,34.563C10.741,340.378,0,368.082,0,400.273   c0,28.537,9.093,53.738,26.754,75.734c17.808,22.188,40.258,35.59,67.634,39.951c6.297,1.025,11.421,1.217,14.73,1.217h287.968   h17.436h61.023c8.118,0,14.729-0.576,19.539-1.795c33.667-4.809,61.908-21.354,84.468-49.891   c21.63-27.381,32.461-59.51,32.461-96.83C612,342.56,605.927,318.191,593.666,295.939z M553.388,444.712   c-17.134,21.355-38.495,33.859-64.325,37.9c-4.835,0.77-9.317,1.217-13.524,1.217h-61.022h-17.437H109.112   c-2.104,0-5.355-0.576-9.318-1.217c-18.892-3.016-34.661-11.928-47.492-27.639c-12.716-15.584-18.937-33.988-18.937-54.701   c0-23.471,7.432-43.414,22.547-59.574c15.25-16.287,33.667-24.303,55.008-24.303c12.928,0,24.952,3.014,36.373,9.297   c-0.301-2.115-0.603-5.129-0.603-9.297c0-21.932,6.99-40.208,21.04-55.342c14.204-15.262,30.96-22.829,51.103-22.829   c13.826,0,26.452,3.912,38.175,11.735c3.905-34.564,18.109-63.357,42.08-86.571c24.125-23.406,52.302-35.205,85.07-35.205   c34.571,0,64.326,13.274,89.277,39.438c24.952,26.1,37.572,57.971,38.175,95.229c20.143,8.465,36.373,22.252,48.698,41.49   c12.325,19.238,18.635,40.592,18.635,64.318C578.937,397.835,570.522,423.423,553.388,444.712z" fill="#FFFFFF"/>
</g>
<g>
</g>
<g>
</g>
<g>
</g>
<g>
</g>
<g>
</g>
<g>
</g>
<g>
</g>
<g>
</g>
<g>
</g>
<g>
</g>
<g>
</g>
<g>
</g>
<g>
</g>
<g>
</g>
<g>
</g>
</svg>
